<?xml version="1.0" encoding="iso-8859-1"?>
<!-- Generator: Adobe Illustrator 16.0.0, SVG Export Plug-In . SVG Version: 6.00 Build 0)  -->
<!DOCTYPE svg PUBLIC "-//W3C//DTD SVG 1.1//EN" "http://www.w3.org/Graphics/SVG/1.1/DTD/svg11.dtd">
<svg version="1.1" id="Capa_1" xmlns="http://www.w3.org/2000/svg" xmlns:xlink="http://www.w3.org/1999/xlink" x="0px" y="0px"
	 width="31.239px" height="31.239px" viewBox="0 0 31.239 31.239" style="enable-background:new 0 0 31.239 31.239;"
	 xml:space="preserve">
<g>
	<g>
		<path d="M31.217,22.817v-1.491c0-1.511-0.577-2.399-1.067-2.879c-0.943-0.923-2.1-0.938-2.279-0.938h-0.258l3.002-11.646
			c0.128-0.495,0.02-1.022-0.294-1.425c-0.313-0.404-0.796-0.641-1.309-0.641H11.656c-0.48,0-0.938,0.209-1.252,0.573
			c-0.313,0.364-0.454,0.847-0.383,1.322L11.774,17.5l-1.365-0.001c-0.773-0.001-1.432-0.569-1.541-1.336L7.307,5.341
			C7.157,4.303,6.385,3.462,5.363,3.225L1.665,2.366c-0.726-0.169-1.453,0.283-1.622,1.01c-0.1,0.431-0.025,0.884,0.209,1.26
			C0.485,5.012,0.859,5.28,1.291,5.38l1.377,0.319C3.69,5.937,4.462,6.778,4.612,7.817l1.64,11.366
			c0.11,0.766,0.768,1.335,1.542,1.335l20.113,0.012c0,0,0.104,0.037,0.146,0.078c0.079,0.079,0.175,0.308,0.175,0.718v1.554
			l-0.004,0.137c0.013,0.16-0.038,0.429-0.107,0.502c-0.018,0.017-0.122,0.074-0.368,0.074h-0.5
			c-0.001-0.006-0.003-0.011-0.005-0.017c-0.587-1.354-1.938-2.308-3.508-2.308s-2.921,0.952-3.509,2.308
			c0,0.006-0.004,0.011-0.005,0.017h-6.11c-0.002-0.006-0.004-0.011-0.007-0.017c-0.588-1.354-1.938-2.308-3.507-2.308
			c-1.569,0-2.92,0.952-3.508,2.308c-0.003,0.006-0.004,0.011-0.005,0.017H6.705v2.989h0.378c0.004,0.005,0.005,0.012,0.008,0.018
			c0.588,1.356,1.938,2.31,3.508,2.31c1.568,0,2.919-0.953,3.507-2.31c0.003-0.006,0.005-0.013,0.007-0.018h6.109
			c0.003,0.005,0.006,0.012,0.007,0.018c0.588,1.356,1.938,2.31,3.509,2.31c1.569,0,2.921-0.953,3.508-2.31
			c0.002-0.006,0.005-0.013,0.006-0.018h0.499c1.364,0,2.167-0.573,2.605-1.062C31.257,24.517,31.283,23.243,31.217,22.817z
			 M16.737,9.642h2.06V7.584h2.725v2.059h2.126v2.724h-2.126v2.059h-2.725v-2.059h-2.06V9.642z M6.781,24.837
			c-0.006,0.083-0.008,0.166-0.008,0.249c0-0.001,0-0.001,0-0.001C6.774,25.002,6.776,24.92,6.781,24.837z M11.583,26.598
			c-0.283,0.186-0.621,0.294-0.984,0.294c-0.364,0-0.702-0.108-0.986-0.294c-0.492-0.322-0.817-0.879-0.817-1.512
			s0.325-1.188,0.817-1.512c0.284-0.185,0.622-0.293,0.986-0.293c0.363,0,0.701,0.108,0.984,0.293
			c0.494,0.323,0.82,0.879,0.82,1.512C12.404,25.719,12.077,26.276,11.583,26.598z M24.724,26.598
			c-0.284,0.186-0.624,0.294-0.986,0.294s-0.702-0.108-0.986-0.294c-0.492-0.322-0.817-0.879-0.817-1.512s0.325-1.188,0.817-1.512
			c0.284-0.185,0.624-0.293,0.986-0.293s0.702,0.108,0.986,0.293c0.492,0.323,0.817,0.879,0.817,1.512S25.216,26.276,24.724,26.598z
			"/>
	</g>
</g>
<g>
</g>
<g>
</g>
<g>
</g>
<g>
</g>
<g>
</g>
<g>
</g>
<g>
</g>
<g>
</g>
<g>
</g>
<g>
</g>
<g>
</g>
<g>
</g>
<g>
</g>
<g>
</g>
<g>
</g>
</svg>
