<?xml version="1.0" encoding="iso-8859-1"?>
<!-- Generator: Adobe Illustrator 16.0.0, SVG Export Plug-In . SVG Version: 6.00 Build 0)  -->
<!DOCTYPE svg PUBLIC "-//W3C//DTD SVG 1.1//EN" "http://www.w3.org/Graphics/SVG/1.1/DTD/svg11.dtd">
<svg version="1.1" id="Capa_1" xmlns="http://www.w3.org/2000/svg" xmlns:xlink="http://www.w3.org/1999/xlink" x="0px" y="0px"
	 width="274.149px" height="274.149px" viewBox="0 0 274.149 274.149" style="enable-background:new 0 0 274.149 274.149;"
	 xml:space="preserve">
<g>
	<g>
		<path d="M183.008,27.124c-2.1,2.3-2.199,5-1.1,7.1c-3.6,0.101-7.3,0.601-11.1,1.5c-21.301,5.4-47.9,32.2-53.4,53.801
			c-1.6,0.199-3.3,0.3-4.9,0.6c-23.2,4.6-37.5,26-42.5,47.5c-13.7,5.6-31.4,19.7-31.7,35.3c0,1.5,0.9,3.4,2.3,4
			c0.5,0.2,0.9,0.4,1.4,0.601c-20.1,8.199-36.2,29.5-35.5,56.899c1.6,68.8,84.8,31.9,115.5,10.101
			c39.201-27.801,70.701-70.301,100.5-107.4c21.101-26.3,42-51.6,44.801-86.6C272.508-13.376,219.309-11.376,183.008,27.124z
			 M249.709,71.024c-12,42.8-55.5,81.5-84.601,113.899c-26.601,29.7-54.4,56.7-91.8,71.8c-30,12.101-58.6-2.3-52.3-39.5
			c7-41.6,57-34.1,76.9-10.6c2.7,3.2,7.4-0.9,5.6-4.3c-14-25.9-36.9-32.5-56.9-26.4c-0.4-10.1,17.5-21.5,24.7-25.3
			c22.2-11.8,40.8-1.6,62,5.3c5,1.601,8.1-4.899,4.9-8.399c-13.5-14.7-37-17.4-56.4-13.301c6.7-15.3,16.9-27.3,34.3-31.899
			c20.9-5.4,35.399,8.5,53.399,15.1c3.701,1.4,7.101-3.399,5.101-6.6c-9.5-14.8-28.7-21.5-46.6-21.9
			c12.1-10.7,20.9-25.6,34.701-35.1c26.399-18,46.6,3.3,64.6,21.6c4.6,4.7,12.6-1.399,9.1-7c-10.199-16.399-25.199-29.7-43-33.3
			c13.2-13.6,47.801-44.9,60.1-10.2C258.309,39.424,253.608,57.024,249.709,71.024z"/>
	</g>
</g>
<g>
</g>
<g>
</g>
<g>
</g>
<g>
</g>
<g>
</g>
<g>
</g>
<g>
</g>
<g>
</g>
<g>
</g>
<g>
</g>
<g>
</g>
<g>
</g>
<g>
</g>
<g>
</g>
<g>
</g>
</svg>
