<?xml version="1.0" encoding="iso-8859-1"?>
<!-- Generator: Adobe Illustrator 19.0.0, SVG Export Plug-In . SVG Version: 6.00 Build 0)  -->
<svg version="1.1" id="Layer_1" xmlns="http://www.w3.org/2000/svg" xmlns:xlink="http://www.w3.org/1999/xlink" x="0px" y="0px"
	 viewBox="0 0 370 370" style="enable-background:new 0 0 370 370;" xml:space="preserve">
<path id="XMLID_482_" d="M355,239.974h-5.978c-7.373-56.35-55.693-100-114.022-100c-7.758,0-15.337,0.777-22.668,2.249l1.52-33.224
	h5.67c8.284,0,15-6.716,15-15c0-8.284-6.716-15-15-15h-20h-67.261V50h38.501c8.284,0,15-6.716,15-15s-6.716-15-15-15h-53.501
	c-8.284,0-15,6.716-15,15v43.998H35H15c-8.284,0-15,6.716-15,15c0,8.284,6.716,15,15,15h5.75l11.639,226.771
	C32.798,343.744,39.384,350,47.369,350h120.965c0.176,0,0.348-0.021,0.521-0.026h132.81c26.651,0,48.334-21.682,48.334-48.333
	v-31.667h5c8.284,0,15-6.716,15-15C370,246.689,363.284,239.974,355,239.974z M318.675,239.974h-167.35
	c7.105-39.739,41.924-70,83.675-70S311.569,200.234,318.675,239.974z M50.79,108.998h133.029l-2.015,44.044
	c-32.484,17.021-55.879,49.114-60.826,86.932H115c-8.284,0-15,6.716-15,15c0,8.284,6.716,15,15,15h5v31.667
	c0,6.497,1.297,12.695,3.632,18.359H61.619L50.79,108.998z M320,301.641c0,10.109-8.225,18.333-18.334,18.333H168.334
	c-10.109,0-18.334-8.224-18.334-18.333v-31.667h170V301.641z"/>
<g>
</g>
<g>
</g>
<g>
</g>
<g>
</g>
<g>
</g>
<g>
</g>
<g>
</g>
<g>
</g>
<g>
</g>
<g>
</g>
<g>
</g>
<g>
</g>
<g>
</g>
<g>
</g>
<g>
</g>
</svg>
